<?xml version="1.0" encoding="UTF-8"?><svg id="Layer_1" xmlns="http://www.w3.org/2000/svg" viewBox="0 0 120 200"><defs><style>.cls-1{fill:#fff;}</style></defs><polygon class="cls-1" points="80 0 80 20 60 20 40 20 40 0 20 0 0 0 0 20 0 40 0 60 0 80 0 100 0 120 0 140 0 160 0 180 0 200 20 200 40 200 40 180 40 160 40 140 40 120 40 100 40 80 40 60 60 60 80 60 80 80 80 100 80 120 80 140 80 160 80 180 80 200 100 200 120 200 120 180 120 160 120 140 120 120 120 100 120 80 120 60 120 40 120 20 120 0 100 0 80 0"/></svg>